<?xml version="1.0" encoding="UTF-8" standalone="no"?>
<!-- Created with Inkscape (http://www.inkscape.org/) -->

<svg
   xmlns:dc="http://purl.org/dc/elements/1.1/"
   xmlns:cc="http://creativecommons.org/ns#"
   xmlns:rdf="http://www.w3.org/1999/02/22-rdf-syntax-ns#"
   xmlns:svg="http://www.w3.org/2000/svg"
   xmlns="http://www.w3.org/2000/svg"
   xmlns:sodipodi="http://sodipodi.sourceforge.net/DTD/sodipodi-0.dtd"
   xmlns:inkscape="http://www.inkscape.org/namespaces/inkscape"
   version="1.2"
   width="662.27783"
   height="162.6123"
   id="svg2"
   inkscape:version="0.48.4 r9939"
   sodipodi:docname="dhbw.svg">
  <sodipodi:namedview
     pagecolor="#ffffff"
     bordercolor="#666666"
     borderopacity="1"
     objecttolerance="10"
     gridtolerance="10"
     guidetolerance="10"
     inkscape:pageopacity="0"
     inkscape:pageshadow="2"
     inkscape:window-width="1366"
     inkscape:window-height="716"
     id="namedview3040"
     showgrid="false"
     inkscape:zoom="0.52092941"
     inkscape:cx="331.13892"
     inkscape:cy="81.306152"
     inkscape:window-x="-8"
     inkscape:window-y="-8"
     inkscape:window-maximized="1"
     inkscape:current-layer="svg2" />
  <title
     id="title3781">Buchstaben &quot;DHBW&quot;</title>
  <defs
     id="defs4" />
  <metadata
     id="metadata7">
    <rdf:RDF>
      <cc:Work
         rdf:about="">
        <dc:format>image/svg+xml</dc:format>
        <dc:type
           rdf:resource="http://purl.org/dc/dcmitype/StillImage" />
        <dc:title>Buchstaben &quot;DHBW&quot;</dc:title>
      </cc:Work>
    </rdf:RDF>
  </metadata>
  <g
     transform="translate(-28.984724,-861.91327)"
     id="layer1"
     opacity="0.2">
    <g
       transform="translate(0,465.98994)"
       style="font-size:40px;font-style:normal;font-variant:normal;font-weight:bold;font-stretch:normal;line-height:352.99985409%;letter-spacing:0px;word-spacing:0px;fill:#000000;fill-opacity:1;stroke:none;font-family:Calibri;-inkscape-font-specification:Sans Bold"
       id="flowRoot2985" />
    <g
       transform="translate(0,465.98994)"
       style="font-size:144px;font-style:normal;font-variant:normal;font-weight:bold;font-stretch:normal;line-height:125%;letter-spacing:0px;word-spacing:0px;fill:#000000;fill-opacity:1;stroke:none;font-family:Calibri;-inkscape-font-specification:Sans Bold"
       id="text2993" />
    <g
       transform="translate(0,465.98994)"
       style="font-size:40px;font-style:normal;font-variant:normal;font-weight:bold;font-stretch:normal;line-height:125%;letter-spacing:0px;word-spacing:0px;fill:#000000;fill-opacity:1;stroke:none;font-family:Calibri;-inkscape-font-specification:Sans Bold"
       id="text2997" />
    <g
       transform="translate(0,465.98994)"
       style="font-size:255px;font-style:normal;font-variant:normal;font-weight:bold;font-stretch:normal;line-height:125%;letter-spacing:0px;word-spacing:0px;fill:#c40000;fill-opacity:1;stroke:none;font-family:Calibri;-inkscape-font-specification:Sans Bold"
       id="text3001" />
    <g
       style="font-size:255px;font-style:normal;font-variant:normal;font-weight:bold;font-stretch:normal;line-height:125%;letter-spacing:0px;word-spacing:0px;fill:#000000;fill-opacity:1;stroke:none;font-family:Calibri;-inkscape-font-specification:Sans Bold"
       id="text3773">
      <path
         d="m 162.83482,940.8537 c -1.5e-4,14.77546 -1.93008,27.41338 -5.78979,37.91382 -3.86001,10.50052 -9.40077,19.07107 -16.62232,25.71168 -7.2218,6.6406 -15.99987,11.5173 -26.33423,14.6301 -10.33456,3.1128 -22.640457,4.6692 -36.917721,4.6692 l -38.474121,0 c -2.739282,0 -5.042747,-0.8093 -6.9104,-2.428 -1.867695,-1.6186 -2.801532,-4.2541 -2.801514,-7.9065 l 0,-140.44919 c -1.8e-5,-3.65219 0.933819,-6.28768 2.801514,-7.90649 1.867653,-1.61849 4.171118,-2.42782 6.9104,-2.42798 l 41.337891,0 c 14.360268,1.6e-4 26.541651,1.68107 36.544191,5.04272 10.00232,3.36197 18.42761,8.34244 25.27588,14.94141 6.848,6.59926 12.05674,14.75477 15.62622,24.46655 3.56918,9.71202 5.35385,20.95957 5.354,33.74268 z m -33.86719,1.1206 c -1.1e-4,-7.63663 -0.89245,-14.73379 -2.677,-21.2915 -1.78478,-6.55751 -4.64855,-12.24354 -8.59131,-17.05811 -3.94297,-4.81432 -9.00644,-8.57042 -15.19043,-11.26831 -6.184163,-2.69762 -14.298169,-4.04649 -24.342037,-4.04663 l -16.560059,0 0,109.57032 17.058106,0 c 8.964767,2e-5 16.518471,-1.16209 22.66113,-3.48633 6.14248,-2.32419 11.26821,-5.83127 15.3772,-10.52124 4.10878,-4.6899 7.18006,-10.52119 9.21387,-17.4939 2.03357,-6.97259 3.05042,-15.10735 3.05053,-24.4043 z"
         style="opacity:0.5;fill:#d80000;fill-opacity:1"
         id="path3047" />
      <path
         d="m 315.6107,1019.2961 c -1.4e-4,0.8301 -0.26992,1.5771 -0.80933,2.2412 -0.53969,0.6641 -1.43202,1.2036 -2.677,1.6186 -1.24525,0.4151 -2.90541,0.7471 -4.98047,0.9961 -2.07532,0.2491 -4.69007,0.3736 -7.84423,0.3736 -3.23743,0 -5.91443,-0.1245 -8.03101,-0.3736 -2.11682,-0.249 -3.77697,-0.581 -4.98047,-0.9961 -1.20373,-0.415 -2.07531,-0.9545 -2.61475,-1.6186 -0.53966,-0.6641 -0.80943,-1.4111 -0.80932,-2.2412 l 0,-65.11965 -60.26367,0 0,65.11965 c -5e-5,0.8301 -0.24908,1.5771 -0.74707,2.2412 -0.4981,0.6641 -1.36968,1.2036 -2.61475,1.6186 -1.24516,0.4151 -2.90532,0.7471 -4.98047,0.9961 -2.07523,0.2491 -4.73148,0.3736 -7.96875,0.3736 -3.15433,0 -5.78982,-0.1245 -7.90649,-0.3736 -2.11673,-0.249 -3.79763,-0.581 -5.04273,-0.9961 -1.24513,-0.415 -2.13747,-0.9545 -2.677,-1.6186 -0.53957,-0.6641 -0.80934,-1.4111 -0.80933,-2.2412 l 0,-152.15334 c -1e-5,-0.82992 0.26976,-1.57699 0.80933,-2.24121 0.53953,-0.6639 1.43187,-1.20345 2.677,-1.61865 1.2451,-0.41488 2.926,-0.74691 5.04273,-0.9961 2.11667,-0.24886 4.75216,-0.37337 7.90649,-0.37353 3.23727,1.6e-4 5.89352,0.12467 7.96875,0.37353 2.07515,0.24919 3.73531,0.58122 4.98047,0.9961 1.24507,0.4152 2.11665,0.95475 2.61475,1.61865 0.49799,0.66422 0.74702,1.41129 0.74707,2.24121 l 0,59.14307 60.26367,0 0,-59.14307 c -1.1e-4,-0.82992 0.26966,-1.57699 0.80932,-2.24121 0.53944,-0.6639 1.41102,-1.20345 2.61475,-1.61865 1.2035,-0.41488 2.86365,-0.74691 4.98047,-0.9961 2.11658,-0.24886 4.79358,-0.37337 8.03101,-0.37353 3.15416,1.6e-4 5.76891,0.12467 7.84423,0.37353 2.07506,0.24919 3.73522,0.58122 4.98047,0.9961 1.24498,0.4152 2.13731,0.95475 2.677,1.61865 0.53941,0.66422 0.80919,1.41129 0.80933,2.24121 z"
         style="opacity:0.5;fill:#d80000;fill-opacity:1"
         id="path3049" />
      <path
         d="m 460.79136,977.58466 c -1.2e-4,5.06351 -0.64343,9.7327 -1.92993,14.00756 -1.28674,4.27493 -3.09216,8.11404 -5.41626,11.51738 -2.32433,3.4033 -5.12584,6.3916 -8.40454,8.9648 -3.27891,2.5733 -6.97276,4.7315 -11.08154,6.4746 -4.10898,1.7432 -8.50839,3.0506 -13.19824,3.9221 -4.69003,0.8716 -10.06478,1.3074 -16.12427,1.3074 l -42.08496,0 c -1.90921,0 -3.71463,-0.6433 -5.41626,-1.9299 -1.70168,-1.2866 -2.55251,-3.5486 -2.55249,-6.7859 l 0,-143.68654 c -2e-5,-3.23715 0.85081,-5.49911 2.55249,-6.78589 1.70163,-1.28646 3.50705,-1.92977 5.41626,-1.92993 l 36.60644,0 c 9.62883,1.6e-4 17.51457,0.91325 23.65723,2.73926 6.14248,1.82633 11.26821,4.48257 15.3772,7.96875 4.10878,3.48647 7.20081,7.76137 9.27612,12.8247 2.07508,5.06361 3.11268,10.79115 3.11279,17.18262 -1.1e-4,3.81848 -0.45666,7.47082 -1.36963,10.95703 -0.9132,3.48644 -2.26207,6.70299 -4.04663,9.64966 -1.78477,2.94688 -4.02598,5.58237 -6.72363,7.90649 -2.69786,2.32431 -5.78989,4.23349 -9.27612,5.72754 4.39931,0.83017 8.50819,2.34506 12.32666,4.54468 3.81825,2.19979 7.15931,5.0013 10.02319,8.40454 2.86365,3.40339 5.12561,7.38776 6.78589,11.95313 1.66003,4.56548 2.49011,9.58745 2.49023,15.06592 z m -32.24853,-72.09229 c -10e-5,-3.90124 -0.53965,-7.42907 -1.61865,-10.5835 -1.0792,-3.15416 -2.78086,-5.83116 -5.10498,-8.031 -2.32431,-2.19957 -5.35409,-3.88048 -9.08936,-5.04273 -3.73543,-1.16196 -8.67439,-1.74302 -14.81689,-1.74316 l -22.16309,0 0,52.17041 24.4043,0 c 5.56145,9e-5 10.04387,-0.72623 13.44726,-2.17895 3.40324,-1.45255 6.2255,-3.40323 8.4668,-5.85206 2.24112,-2.44862 3.88052,-5.31239 4.91821,-8.5913 1.03751,-3.2787 1.5563,-6.66127 1.5564,-10.14771 z m 9.71191,73.3374 c -1e-4,-4.8144 -0.76792,-9.04779 -2.30346,-12.70019 -1.53575,-3.65228 -3.77696,-6.72357 -6.72364,-9.21387 -2.94687,-2.49016 -6.64071,-4.37859 -11.08154,-5.66528 -4.441,-1.28655 -10.02327,-1.92986 -16.74683,-1.92993 l -25.64941,0 0,56.7773 31.12793,0 c 4.89738,10e-5 9.17228,-0.581 12.82471,-1.7431 3.65225,-1.1621 6.8688,-2.8845 9.64966,-5.16726 2.78066,-2.28269 4.95961,-5.1257 6.53686,-8.52905 1.57705,-3.40329 2.36562,-7.34615 2.36572,-11.82862 z"
         style="font-weight:normal;opacity:0.5;fill:#000000;fill-opacity:0.31153846;-inkscape-font-specification:Calibri"
         id="path3051" />
      <path
         d="m 647.80797,1019.0471 c -0.33221,1.1621 -0.83026,2.0959 -1.49414,2.8015 -0.66424,0.7055 -1.57733,1.2451 -2.73926,1.6186 -1.16228,0.3736 -2.59417,0.6433 -4.29566,0.8094 -1.70182,0.166 -3.79777,0.249 -6.28784,0.249 -2.5734,0 -4.75235,-0.083 -6.53686,-0.249 -1.78482,-0.1661 -3.25821,-0.4358 -4.42017,-0.8094 -1.16226,-0.3735 -2.03384,-0.9131 -2.61475,-1.6186 -0.5812,-0.7056 -1.03774,-1.6394 -1.36962,-2.8015 l -33.74268,-121.64799 -0.24902,0 -31.12793,121.64799 c -0.24911,1.1621 -0.66415,2.0959 -1.24512,2.8015 -0.58113,0.7055 -1.41121,1.2451 -2.49024,1.6186 -1.07917,0.3736 -2.46955,0.6433 -4.17114,0.8094 -1.70173,0.166 -3.88068,0.249 -6.53686,0.249 -2.73932,0 -5.02204,-0.083 -6.84815,-0.249 -1.82623,-0.1661 -3.32037,-0.4358 -4.48242,-0.8094 -1.16216,-0.3735 -2.0545,-0.9131 -2.677,-1.6186 -0.62261,-0.7056 -1.0584,-1.6394 -1.30737,-2.8015 L 480.58873,870.25555 c -0.49806,-1.90902 -0.76783,-3.40316 -0.80933,-4.48242 -0.0415,-1.07894 0.29052,-1.90902 0.9961,-2.49023 0.70555,-0.5809 1.84691,-0.95443 3.42407,-1.12061 1.57713,-0.16585 3.69383,-0.24886 6.3501,-0.24902 2.57322,1.6e-4 4.60691,0.0624 6.10107,0.18677 1.49411,0.12467 2.63547,0.35294 3.42407,0.68481 0.78855,0.33219 1.3281,0.78874 1.61865,1.36963 0.2905,0.58121 0.51877,1.32828 0.68482,2.24121 l 36.23291,134.97071 0.12451,0 34.36523,-134.72169 c 0.24893,-0.91292 0.56021,-1.68075 0.93384,-2.30346 0.37344,-0.6224 0.97524,-1.0997 1.80542,-1.43189 0.82998,-0.33187 2.01284,-0.58089 3.54859,-0.74707 1.53553,-0.16585 3.54847,-0.24886 6.03882,-0.24902 2.3241,1.6e-4 4.17102,0.0832 5.54077,0.24902 1.36951,0.16618 2.46936,0.4152 3.29956,0.74707 0.82995,0.33219 1.43176,0.80949 1.80542,1.43189 0.37341,0.62271 0.68469,1.39054 0.93383,2.30346 l 36.97999,134.72169 0.24902,0 35.48584,-134.8462 c 0.24882,-0.82992 0.49785,-1.55624 0.74707,-2.17895 0.24882,-0.6224 0.76762,-1.0997 1.5564,-1.43189 0.78837,-0.33187 1.90897,-0.58089 3.36181,-0.74707 1.45243,-0.16585 3.38236,-0.24886 5.7898,-0.24902 2.49002,1.6e-4 4.46145,0.10392 5.9143,0.31128 1.45242,0.20768 2.51077,0.60197 3.17505,1.18286 0.66385,0.58121 0.97513,1.41129 0.93384,2.49023 -0.0417,1.07926 -0.26999,2.5734 -0.68481,4.48243 z"
         style="font-weight:normal;opacity:0.5;fill:#000000;fill-opacity:0.31153846;-inkscape-font-specification:Calibri"
         id="path3053" />
    </g>
  </g>
</svg>
